<svg t="1663558646691" class="icon" viewBox="0 0 1024 1024" version="1.1" xmlns="http://www.w3.org/2000/svg" p-id="4074" width="200" height="200"><path d="M512 42.666667a384 384 0 0 1 384 384c0 135.68-117.802667 324.394667-353.450667 566.314666a42.666667 42.666667 0 0 1-61.098666 0l-15.232-15.701333C240.725333 742.912 128 559.36 128 426.666667a384 384 0 0 1 384-384z m0 128a256 256 0 1 0 0 512 256 256 0 0 0 0-512z" p-id="4075" fill="#1296db"></path><path d="M683.093333 323.413333c6.997333 7.082667 6.869333 18.858667 0.085334 27.52l-2.048 2.261334-179.498667 179.541333c-8.021333 8.021333-19.882667 9.386667-27.733333 3.626667l-2.048-1.706667-92.8-92.842667c-7.68-7.68-6.826667-21.034667 1.92-29.781333 7.978667-8.021333 19.882667-9.386667 27.733333-3.626667l2.005333 1.706667 78.933334 78.933333 163.669333-163.669333c7.978667-8.021333 19.882667-9.386667 27.733333-3.669333l2.005334 1.706666z" p-id="4076" fill="#1296db"></path></svg>

