<svg t="1714020397336" class="icon" viewBox="0 0 1024 1024" version="1.1" xmlns="http://www.w3.org/2000/svg" p-id="6522" width="200" height="200"><path d="M512 0a512 512 0 1 0 512 512A512 512 0 0 0 512 0z" fill="#3E50B5" p-id="6523"></path><path d="M803.76 701.36a16.96 16.96 0 0 1 8 17.12 29.04 29.04 0 0 1-10.72 20.88l-62 62q-18.96 18.96-38 0L456 555.84a160.64 160.64 0 0 1-96.88 8 174.64 174.64 0 0 1-89.28-48.72 178.24 178.24 0 0 1-50.64-96 156.56 156.56 0 0 1 15.2-104L353.12 432l80.96-81.28L317.6 234.24a173.44 173.44 0 0 1 104-13.92 170.96 170.96 0 0 1 96 49.36 174.72 174.72 0 0 1 48.8 89.28 160 160 0 0 1-8 96.88z" fill="#FFFFFF" p-id="6524"></path></svg>