<svg t="1713930679822" class="icon" viewBox="0 0 1024 1024" version="1.1" xmlns="http://www.w3.org/2000/svg" p-id="4263" width="200" height="200"><path d="M512 192C173.696 192 0 544 0 544S131.072 896 512 896c344.96 0 512-350.656 512-350.656S855.68 192 512 192z m0.768 571.968c-123.712 0-213.12-96.256-213.12-219.968 0-123.776 89.408-220.032 213.12-220.032s213.12 96.256 213.12 220.032c0 123.712-89.408 219.968-213.12 219.968z m0-352c-70.656 0.128-127.872 61.312-127.872 132.032 0 70.656 57.216 131.968 127.872 131.968 70.72 0 127.872-61.312 127.872-131.968 0-70.784-57.152-132.16-127.872-132.032z" fill="#ffffff" p-id="4264"></path></svg>